<svg id="Capa_2" data-name="Capa 2" xmlns="http://www.w3.org/2000/svg" viewBox="0 0 2090.62 625">
  <defs>
    <style>
      .cls-1 {
        letter-spacing: -.04em;
      }

      .cls-2 {
        letter-spacing: -.01em;
      }

      .cls-3 {
        letter-spacing: .02em;
      }

      .cls-4 {
        letter-spacing: -.03em;
      }

      .cls-5, .cls-6, .cls-7 {
        stroke-width: 0px;
      }

      .cls-5, .cls-8 {
        fill: #ffd335;
      }

      .cls-9 {
        letter-spacing: .03em;
      }

      .cls-10 {
        letter-spacing: -.04em;
      }

      .cls-6, .cls-11 {
        fill: #517b90;
      }

      .cls-7 {
        fill: #63cceb;
      }

      .cls-12 {
        letter-spacing: 0em;
      }

      .cls-8 {
        font-size: 94.7px;
      }

      .cls-8, .cls-11 {
        font-family: Montserrat-ExtraBold, Montserrat;
        font-weight: 700;
      }

      .cls-13 {
        letter-spacing: -.03em;
      }

      .cls-14 {
        letter-spacing: -.02em;
      }

      .cls-11 {
        font-size: 294.62px;
      }

      .cls-15 {
        letter-spacing: -.03em;
      }
    </style>
  </defs>
  <text id="slogan" class="cls-8" transform="translate(577.24 529.31)"><tspan class="cls-4" x="0" y="0">Y</tspan><tspan x="62.79" y="0">OUR </tspan><tspan class="cls-15" x="314.97" y="0">F</tspan><tspan x="373.21" y="0">A</tspan><tspan class="cls-12" x="447.64" y="0">S</tspan><tspan class="cls-14" x="507.96" y="0">T</tspan><tspan class="cls-1" x="566.49" y="0">W</tspan><tspan class="cls-10" x="674.92" y="0">A</tspan><tspan x="745.19" y="0">Y REAL </tspan><tspan class="cls-2" x="1131.84" y="0">S</tspan><tspan class="cls-13" x="1192.16" y="0">TA</tspan><tspan x="1320.1" y="0">TE</tspan></text>
  <g>
    <g>
      <path class="cls-5" d="M120.12,377.5c0-61.36,35.86-114.33,87.76-139.12v-28.17c-72.5,27.4-120.45,96.22-120.45,174.67,0,10.71.91,21.21,2.66,31.43,10.38-5.56,21-10.65,31.82-15.24-1.18-7.69-1.79-15.56-1.79-23.57Z"/>
      <path class="cls-5" d="M340.55,210.22v28.15c51.9,24.79,87.76,77.77,87.76,139.12,0,8.02-.61,15.89-1.79,23.57,10.82,4.59,21.44,9.68,31.82,15.24,1.74-10.22,2.66-20.72,2.66-31.43,0-78.15-48.04-147.23-120.45-174.66Z"/>
    </g>
    <g>
      <polygon class="cls-7" points="311.07 98.79 281.59 79.8 281.59 97.33 311.07 116.32 311.07 98.79"/>
      <path class="cls-7" d="M178.4,382.08v-21.45l-15.01,9.67v15.9c3.09-.91,6.19-1.8,9.31-2.64,1.9-.51,3.8-1,5.7-1.48Z"/>
      <path class="cls-7" d="M207.89,375.86c9.78-1.67,19.64-2.99,29.55-3.91v-62.37l-29.55,19.03v47.25Z"/>
      <path class="cls-7" d="M266.85,237.88h0s0-39.33,0-39.33l-14.67,9.45v162.85c4.88-.27,9.78-.46,14.67-.55v-132.41Z"/>
      <path class="cls-7" d="M385.04,386.19v-16.07l-15.01-9.67v21.62c1.9.48,3.8.97,5.7,1.48,3.11.84,6.21,1.72,9.31,2.64Z"/>
      <path class="cls-7" d="M355.29,294.87l-14.74-9.49v90.47c4.93.84,9.85,1.78,14.74,2.81v-83.79Z"/>
      <polygon class="cls-7" points="296.33 141.89 281.59 132.4 281.59 212.52 296.33 222.02 296.33 141.89"/>
      <path class="cls-7" d="M311.07,371.96v-105.59l-29.48-18.99v122.92c9.86.18,19.7.74,29.48,1.66Z"/>
      <polygon class="cls-7" points="266.85 163.69 266.85 97.4 222.63 125.89 222.63 284.22 237.43 274.69 237.43 200.25 237.43 182.64 266.85 163.69"/>
    </g>
    <path class="cls-6" d="M436.47,265.33c-12.36-16.75-27.17-31.44-44.02-43.67-15.94-11.57-33.38-20.68-51.89-27.13v-94.29l-66.33-42.73-66.33,42.73v94.29c-17.9,6.23-34.8,14.96-50.33,26-17.14,12.19-32.22,26.91-44.82,43.76-26.19,35.03-40.04,76.72-40.04,120.58,0,27.2,5.33,53.59,15.84,78.44,10.15,24,24.68,45.55,43.18,64.05,18.5,18.5,40.06,33.03,64.05,43.18,24.85,10.51,51.24,15.84,78.44,15.84s53.59-5.33,78.44-15.84c24-10.15,45.55-24.68,64.05-43.18,18.5-18.5,33.03-40.06,43.18-64.05,10.51-24.85,15.84-51.24,15.84-78.44,0-43.39-13.58-84.73-39.27-119.55ZM237.43,292.22v79.73c-14.91,1.4-29.69,3.64-44.29,6.72v-57.92l44.29-28.53ZM193.23,393.79c.28,16.89,1.37,33.4,3.22,49.24-3.69,1.13-7.35,2.34-10.99,3.63-9.36,3.32-18.5,7.17-27.39,11.5-4.74-16.36-7.89-33.74-9.3-51.69,14.53-5.14,29.39-9.37,44.46-12.69ZM163.4,386.19v-33.22l15.01-9.67v38.77c-1.9.48-3.8.97-5.7,1.48-3.11.84-6.21,1.72-9.31,2.64ZM198.42,457.77c2.6,17.2,6.12,33.43,10.5,48.26-8.32,2.85-16.45,6.24-24.35,10.18-8.81-13.13-16.18-27.94-21.94-43.95,11.56-5.77,23.51-10.61,35.79-14.49ZM87.44,384.88c0-78.45,47.95-147.27,120.45-174.67v83.51l-29.48,18.99v13.06l-29.75,19.16v45.93c-20.16,6.85-39.76,15.37-58.56,25.44-1.74-10.22-2.66-20.72-2.66-31.43ZM93.3,431.34c13.32-7.33,27.06-13.82,41.14-19.45,1.73,18.47,5.22,36.37,10.32,53.24-9.99,5.6-19.63,11.85-28.87,18.74-10.06-16.04-17.76-33.71-22.6-52.52ZM124.21,496.04c8.16-6.12,16.61-11.7,25.31-16.73,5.89,15.91,13.29,30.72,22.06,43.99-4.36,2.59-8.64,5.36-12.83,8.3-13.02-10.27-24.65-22.24-34.55-35.56ZM171.47,540.77c2.88-1.9,5.8-3.72,8.76-5.45,6.09,7.77,12.59,14.71,19.43,20.79-9.87-4.31-19.29-9.45-28.19-15.34ZM193.47,528.28c6.52-3.14,13.2-5.88,20.01-8.22.57,1.59,1.14,3.17,1.73,4.72,5.78,15.21,12.41,27.8,19.69,37.55-15.01-7.31-29.07-18.8-41.43-34.05ZM266.85,570.35c-13.71-4.8-27.19-22.72-37.85-50.81-.46-1.22-.92-2.46-1.37-3.72,12.73-3.26,25.85-5.18,39.23-5.69v60.22ZM266.85,495.39c-14.95.53-29.61,2.68-43.81,6.39-4.35-14.7-7.81-30.87-10.33-48.06,17.53-4.4,35.65-6.89,54.14-7.42v49.08ZM266.85,431.56c-19,.52-37.74,3.04-56.02,7.52-1.73-15.5-2.71-31.68-2.9-48.23,19.39-3.47,39.1-5.42,58.92-5.8v46.51ZM266.85,370.3c-4.9.09-9.79.28-14.67.55v-180.17l14.67-9.45v189.07ZM266.85,163.69l-29.42,18.95v92.05l-14.81,9.54V108.28l44.22-28.48v83.9ZM340.55,268.04l14.74,9.49v101.14c-4.89-1.03-9.81-1.97-14.74-2.81v-107.82ZM399.67,406.48c-1.41,17.95-4.56,35.33-9.3,51.69-8.89-4.33-18.02-8.18-27.39-11.5-3.64-1.29-7.31-2.5-10.99-3.63,1.85-15.84,2.93-32.35,3.22-49.24,15.07,3.32,29.92,7.55,44.46,12.69ZM370.03,382.08v-38.77l15.01,9.67v33.22c-3.09-.91-6.19-1.8-9.31-2.64-1.9-.51-3.8-1-5.7-1.48ZM385.8,472.26c-5.76,16.01-13.13,30.82-21.94,43.95-7.9-3.94-16.03-7.33-24.35-10.18,4.39-14.83,7.91-31.06,10.5-48.26,12.27,3.88,24.23,8.71,35.79,14.49ZM337.61,439.08c-18.28-4.48-37.02-7-56.02-7.52v-46.51c19.82.39,39.53,2.34,58.92,5.8-.19,16.55-1.17,32.73-2.9,48.23ZM335.73,453.72c-2.51,17.19-5.98,33.36-10.33,48.06-14.2-3.71-28.87-5.86-43.81-6.39v-49.08c18.49.52,36.61,3.02,54.14,7.42ZM281.59,79.8l44.22,28.48v132.73l-14.74-9.49v-115.19l-29.48-18.99v-17.53ZM281.59,114.86l14.74,9.49v97.66l-14.74-9.49v-97.66ZM281.59,230.06l44.22,28.48v115.07c-14.63-1.93-29.39-3.04-44.22-3.31v-140.24ZM281.59,570.35v-60.22c13.37.51,26.5,2.43,39.23,5.69-.45,1.25-.91,2.49-1.37,3.72-10.66,28.09-24.14,46.01-37.85,50.81ZM313.53,562.33c7.28-9.75,13.92-22.34,19.69-37.55.59-1.55,1.16-3.13,1.73-4.72,6.82,2.34,13.5,5.08,20.01,8.22-12.36,15.25-26.42,26.74-41.43,34.05ZM348.78,556.11c6.84-6.08,13.34-13.01,19.43-20.79,2.96,1.73,5.88,3.55,8.76,5.45-8.9,5.88-18.32,11.02-28.19,15.34ZM389.68,531.6c-4.19-2.94-8.47-5.71-12.83-8.3,8.77-13.27,16.17-28.07,22.06-43.99,8.7,5.02,17.15,10.61,25.31,16.73-9.9,13.32-21.52,25.29-34.55,35.56ZM432.54,483.86c-9.24-6.88-18.87-13.14-28.86-18.74,5.11-16.87,8.59-34.76,10.32-53.24,14.08,5.63,27.82,12.12,41.14,19.45-4.84,18.81-12.53,36.48-22.6,52.52ZM458.34,416.31c-18.8-10.08-38.4-18.6-58.56-25.44v-45.93l-29.75-19.16v-56.28l-29.48-18.99v-40.28c72.41,27.43,120.45,96.51,120.45,174.66,0,10.71-.91,21.21-2.66,31.43Z"/>
  </g>
  <text id="name" class="cls-11" transform="translate(569.83 421.89)"><tspan class="cls-3" x="0" y="0">SO</tspan><tspan class="cls-9" x="454.59" y="0">L</tspan><tspan class="cls-3" x="644.03" y="0">ARIA</tspan></text>
</svg>