<?xml version="1.0" encoding="utf-8"?>
<!-- Generator: Adobe Illustrator 28.3.0, SVG Export Plug-In . SVG Version: 6.00 Build 0)  -->
<svg version="1.1" xmlns="http://www.w3.org/2000/svg" xmlns:xlink="http://www.w3.org/1999/xlink" x="0px" y="0px"
	 viewBox="0 0 594.37 625" style="enable-background:new 0 0 594.37 625;" xml:space="preserve">
<style type="text/css">
	.st0{fill:#FFD335;}
	.st1{fill:#63CCEB;}
	.st2{fill:#517B90;}
</style>
<g id="All__work">
</g>
<g id="SOLARIA">
	
		<text id="name_1_" transform="matrix(1 0 0 1 -3716.4707 725.9556)" class="st2" style="font-family:'Montserrat-ExtraBold'; font-size:104.1024px; letter-spacing:2;">SOLARIA</text>
</g>
<g id="YOUR_FASTWAY_REAL_STATE">
	
		<text id="slogan_1_" transform="matrix(1 0 0 1 -3714.2852 772.2592)" class="st0" style="font-family:'Montserrat-ExtraBold'; font-size:33.4761px;">YOUR FASTWAY REAL STATE</text>
</g>
<g id="SOL">
	<g>
		<path class="st0" d="M-3641.02,359.34c0-72.2,42.2-134.54,103.28-163.71v-33.15c-85.32,32.24-141.73,113.22-141.73,205.54
			c0,12.6,1.08,24.96,3.12,36.99c12.21-6.54,24.71-12.53,37.44-17.93C-3640.3,378.04-3641.02,368.78-3641.02,359.34z"/>
		<path class="st0" d="M-3381.63,162.5v33.13c61.08,29.17,103.28,91.51,103.28,163.71c0,9.43-0.72,18.7-2.11,27.74
			c12.73,5.41,25.23,11.39,37.44,17.93c2.05-12.03,3.12-24.39,3.12-36.99C-3239.9,276.07-3296.43,194.77-3381.63,162.5z"/>
	</g>
</g>
<g id="COLOR_EDIFICIO">
	<g>
		<polygon class="st1" points="-3416.32,31.37 -3451.01,9.03 -3451.01,29.66 -3416.32,52.01 		"/>
		<path class="st1" d="M-3572.44,364.73v-25.24l-17.66,11.37v18.71c3.64-1.08,7.29-2.12,10.95-3.1
			C-3576.91,365.88-3574.68,365.3-3572.44,364.73z"/>
		<path class="st1" d="M-3537.75,357.42c11.51-1.97,23.11-3.51,34.77-4.6v-73.39l-34.77,22.4V357.42z"/>
		<path class="st1" d="M-3468.36,195.06L-3468.36,195.06v-46.29l-17.27,11.12v191.63c5.75-0.32,11.5-0.54,17.27-0.65V195.06z"/>
		<path class="st1" d="M-3329.28,369.58v-18.91l-17.66-11.37v25.44c2.24,0.57,4.48,1.14,6.71,1.74
			C-3336.56,367.46-3332.92,368.5-3329.28,369.58z"/>
		<path class="st1" d="M-3364.28,262.12l-17.35-11.17v106.46c5.81,0.99,11.59,2.1,17.35,3.31V262.12z"/>
		<polygon class="st1" points="-3433.67,82.1 -3451.01,70.93 -3451.01,165.21 -3433.67,176.38 		"/>
		<path class="st1" d="M-3416.32,352.82V228.58l-34.69-22.35v144.64C-3439.41,351.09-3427.84,351.75-3416.32,352.82z"/>
		<polygon class="st1" points="-3468.36,107.75 -3468.36,29.75 -3520.4,63.27 -3520.4,249.59 -3502.98,238.36 -3502.98,150.77 
			-3502.98,130.05 		"/>
	</g>
</g>
<g id="LINEAS">
	<g>
		<path class="st2" d="M-3268.76,227.35c-14.55-19.71-31.97-37-51.8-51.38c-18.76-13.61-39.28-24.34-61.07-31.93V33.09l-78.06-50.28
			l-78.06,50.28v110.96c-21.06,7.34-40.95,17.6-59.23,30.6c-20.17,14.34-37.91,31.67-52.74,51.49
			c-30.82,41.22-47.12,90.28-47.12,141.89c0,32.01,6.27,63.07,18.64,92.31c11.94,28.24,29.04,53.6,50.82,75.38
			s47.14,38.87,75.38,50.82c29.24,12.37,60.3,18.64,92.31,18.64c32.01,0,63.07-6.27,92.31-18.64c28.24-11.94,53.6-29.04,75.37-50.82
			s38.87-47.14,50.82-75.38c12.37-29.24,18.64-60.3,18.64-92.31C-3222.55,316.96-3238.53,268.32-3268.76,227.35z M-3502.98,259
			v93.82c-17.54,1.64-34.94,4.28-52.12,7.91v-68.16L-3502.98,259z M-3554.99,378.52c0.34,19.87,1.61,39.31,3.79,57.94
			c-4.34,1.33-8.65,2.75-12.94,4.27c-11.02,3.91-21.77,8.44-32.23,13.54c-5.58-19.25-9.29-39.7-10.94-60.82
			C-3590.21,387.4-3572.73,382.42-3554.99,378.52z M-3590.1,369.58v-39.1l17.66-11.37v45.62c-2.24,0.57-4.48,1.14-6.71,1.74
			C-3582.81,367.46-3586.46,368.5-3590.1,369.58z M-3548.88,453.81c3.06,20.24,7.2,39.34,12.36,56.79
			c-9.79,3.35-19.35,7.34-28.65,11.98c-10.37-15.45-19.04-32.87-25.82-51.72C-3577.4,464.06-3563.33,458.38-3548.88,453.81z
			 M-3679.48,368.03c0-92.32,56.42-173.3,141.73-205.54v98.27l-34.69,22.35v15.37l-35.01,22.55v54.05
			c-23.73,8.06-46.78,18.08-68.91,29.94C-3678.4,392.99-3679.48,380.63-3679.48,368.03z M-3672.59,422.7
			c15.67-8.63,31.85-16.26,48.41-22.89c2.03,21.74,6.14,42.8,12.15,62.64c-11.76,6.58-23.09,13.95-33.97,22.05
			C-3657.84,465.63-3666.9,444.83-3672.59,422.7z M-3636.2,498.84c9.61-7.2,19.55-13.77,29.79-19.68
			c6.94,18.73,15.64,36.15,25.96,51.76c-5.13,3.05-10.17,6.31-15.1,9.76C-3610.88,528.59-3624.56,514.51-3636.2,498.84z
			 M-3580.6,551.48c3.39-2.24,6.82-4.37,10.31-6.41c7.16,9.15,14.82,17.31,22.86,24.46C-3559.04,564.45-3570.13,558.4-3580.6,551.48
			z M-3554.71,536.78c7.67-3.69,15.53-6.92,23.55-9.67c0.67,1.87,1.34,3.73,2.03,5.55c6.8,17.9,14.61,32.71,23.17,44.19
			C-3523.62,568.24-3540.16,554.72-3554.71,536.78z M-3468.36,586.29c-16.14-5.64-32-26.73-44.54-59.79
			c-0.55-1.44-1.08-2.9-1.61-4.37c14.98-3.84,30.42-6.09,46.16-6.7V586.29z M-3468.36,498.07c-17.59,0.63-34.85,3.16-51.56,7.52
			c-5.12-17.3-9.2-36.33-12.15-56.55c20.63-5.18,41.95-8.11,63.71-8.73V498.07z M-3468.36,422.96c-22.36,0.61-44.41,3.57-65.92,8.85
			c-2.03-18.24-3.19-37.28-3.41-56.75c22.82-4.08,46.01-6.37,69.34-6.83V422.96z M-3468.36,350.87c-5.77,0.11-11.52,0.33-17.27,0.65
			V139.51l17.27-11.12V350.87z M-3468.36,107.75l-34.61,22.3v108.31l-17.42,11.22V42.55l52.04-33.52V107.75z M-3381.63,230.54
			l17.35,11.17v119.01c-5.76-1.22-11.54-2.32-17.35-3.31V230.54z M-3312.06,393.45c-1.66,21.12-5.36,41.57-10.94,60.82
			c-10.46-5.1-21.21-9.63-32.23-13.54c-4.29-1.52-8.6-2.94-12.94-4.27c2.18-18.64,3.45-38.07,3.79-57.94
			C-3346.64,382.42-3329.17,387.4-3312.06,393.45z M-3346.94,364.73v-45.62l17.66,11.37v39.1c-3.64-1.08-7.29-2.12-10.95-3.1
			C-3342.46,365.88-3344.7,365.3-3346.94,364.73z M-3328.38,470.86c-6.78,18.84-15.45,36.27-25.82,51.72
			c-9.3-4.63-18.86-8.63-28.65-11.98c5.16-17.45,9.31-36.55,12.36-56.79C-3356.05,458.38-3341.98,464.06-3328.38,470.86z
			 M-3385.09,431.81c-21.51-5.28-43.56-8.24-65.92-8.85v-54.73c23.32,0.46,46.51,2.75,69.34,6.83
			C-3381.9,394.53-3383.06,413.57-3385.09,431.81z M-3387.3,449.04c-2.96,20.22-7.04,39.25-12.15,56.55
			c-16.71-4.36-33.97-6.89-51.56-7.52v-57.76C-3429.25,440.93-3407.94,443.86-3387.3,449.04z M-3451.01,9.03l52.04,33.52v156.19
			l-17.35-11.17V52.01l-34.69-22.35V9.03z M-3451.01,50.29l17.35,11.17v114.92l-17.35-11.17V50.29z M-3451.01,185.84l52.04,33.52
			v135.41c-17.21-2.27-34.59-3.57-52.04-3.9V185.84z M-3451.01,586.29v-70.86c15.74,0.6,31.18,2.86,46.16,6.7
			c-0.53,1.47-1.07,2.93-1.61,4.37C-3419.02,559.55-3434.88,580.64-3451.01,586.29z M-3413.42,576.84
			c8.57-11.48,16.38-26.29,23.17-44.19c0.69-1.82,1.37-3.68,2.03-5.55c8.02,2.76,15.88,5.98,23.55,9.67
			C-3379.21,554.72-3395.76,568.24-3413.42,576.84z M-3371.95,569.52c8.04-7.15,15.7-15.31,22.86-24.46
			c3.48,2.04,6.92,4.17,10.31,6.41C-3349.25,558.4-3360.33,564.45-3371.95,569.52z M-3323.82,540.68c-4.93-3.46-9.96-6.71-15.1-9.76
			c10.31-15.62,19.02-33.03,25.96-51.76c10.24,5.91,20.18,12.48,29.79,19.68C-3294.82,514.51-3308.5,528.59-3323.82,540.68z
			 M-3273.38,484.5c-10.87-8.1-22.21-15.46-33.97-22.05c6.01-19.85,10.11-40.91,12.15-62.64c16.57,6.63,32.74,14.26,48.41,22.89
			C-3252.48,444.83-3261.54,465.63-3273.38,484.5z M-3243.02,405.02c-22.13-11.86-45.18-21.88-68.91-29.94v-54.05l-35.01-22.55
			v-66.23l-34.69-22.35v-47.4c85.2,32.27,141.73,113.57,141.73,205.53C-3239.9,380.63-3240.97,392.99-3243.02,405.02z"/>
	</g>
</g>
<g id="Capa_8">
</g>
<g id="Capa_2">
	
		<text id="slogan_00000148648654785826424570000014567507788693921434_" transform="matrix(1 0 0 1 -1533.3896 529.3086)" class="st0" style="font-family:'Montserrat-ExtraBold'; font-size:94.6995px;">YOUR FASTWAY REAL STATE</text>
	<g>
		<g>
			<path class="st0" d="M-1990.5,377.5c0-61.36,35.86-114.33,87.76-139.12V210.2c-72.5,27.4-120.45,96.22-120.45,174.67
				c0,10.71,0.91,21.21,2.66,31.43c10.38-5.56,21-10.65,31.82-15.24C-1989.89,393.38-1990.5,385.51-1990.5,377.5z"/>
			<path class="st0" d="M-1770.07,210.22v28.15c51.9,24.79,87.76,77.77,87.76,139.12c0,8.02-0.61,15.89-1.79,23.57
				c10.82,4.59,21.44,9.68,31.82,15.24c1.74-10.22,2.66-20.72,2.66-31.43C-1649.63,306.73-1697.67,237.65-1770.07,210.22z"/>
		</g>
		<g>
			<polygon class="st1" points="-1799.55,98.79 -1829.04,79.8 -1829.04,97.33 -1799.55,116.32 			"/>
			<path class="st1" d="M-1932.22,382.08v-21.45l-15.01,9.67v15.9c3.09-0.91,6.19-1.8,9.31-2.64
				C-1936.03,383.05-1934.12,382.56-1932.22,382.08z"/>
			<path class="st1" d="M-1902.74,375.86c9.78-1.67,19.64-2.99,29.55-3.91v-62.37l-29.55,19.03V375.86z"/>
			<path class="st1" d="M-1843.78,237.88L-1843.78,237.88v-39.33l-14.68,9.45v162.85c4.88-0.27,9.78-0.46,14.68-0.55V237.88z"/>
			<path class="st1" d="M-1725.58,386.19v-16.07l-15.01-9.67v21.62c1.9,0.48,3.8,0.97,5.7,1.48
				C-1731.78,384.39-1728.68,385.28-1725.58,386.19z"/>
			<path class="st1" d="M-1755.33,294.87l-14.74-9.49v90.47c4.93,0.84,9.85,1.78,14.74,2.81V294.87z"/>
			<polygon class="st1" points="-1814.29,141.89 -1829.04,132.4 -1829.04,212.52 -1814.29,222.02 			"/>
			<path class="st1" d="M-1799.55,371.96V266.37l-29.48-18.99V370.3C-1819.17,370.48-1809.34,371.04-1799.55,371.96z"/>
			<polygon class="st1" points="-1843.78,163.69 -1843.78,97.4 -1888,125.89 -1888,284.22 -1873.19,274.69 -1873.19,200.25 
				-1873.19,182.64 			"/>
		</g>
		<path class="st2" d="M-1674.16,265.33c-12.36-16.75-27.17-31.44-44.02-43.67c-15.94-11.57-33.38-20.68-51.89-27.13v-94.29
			l-66.33-42.73l-66.33,42.73v94.29c-17.9,6.23-34.8,14.96-50.33,26c-17.14,12.19-32.22,26.91-44.82,43.76
			c-26.19,35.03-40.04,76.72-40.04,120.58c0,27.2,5.33,53.59,15.84,78.44c10.15,24,24.68,45.55,43.18,64.05
			c18.51,18.51,40.06,33.03,64.05,43.18c24.85,10.51,51.24,15.84,78.44,15.84s53.59-5.33,78.44-15.84
			c24-10.15,45.55-24.68,64.05-43.18c18.51-18.5,33.03-40.06,43.19-64.05c10.51-24.85,15.84-51.24,15.84-78.44
			C-1634.88,341.48-1648.46,300.14-1674.16,265.33z M-1873.19,292.22v79.73c-14.91,1.4-29.69,3.64-44.29,6.72v-57.92
			L-1873.19,292.22z M-1917.4,393.79c0.28,16.89,1.37,33.4,3.22,49.24c-3.69,1.13-7.35,2.34-10.99,3.63
			c-9.36,3.32-18.5,7.17-27.39,11.5c-4.74-16.36-7.89-33.74-9.3-51.69C-1947.32,401.34-1932.47,397.11-1917.4,393.79z
			 M-1947.23,386.19v-33.22l15.01-9.67v38.77c-1.9,0.48-3.8,0.97-5.7,1.48C-1941.04,384.39-1944.14,385.28-1947.23,386.19z
			 M-1912.21,457.77c2.6,17.2,6.12,33.43,10.5,48.26c-8.32,2.85-16.45,6.24-24.35,10.18c-8.81-13.13-16.18-27.94-21.94-43.95
			C-1936.44,466.49-1924.48,461.66-1912.21,457.77z M-2023.19,384.88c0-78.45,47.94-147.27,120.45-174.67v83.51l-29.48,18.99v13.06
			l-29.75,19.16v45.93c-20.16,6.85-39.76,15.37-58.56,25.44C-2022.27,406.09-2023.19,395.59-2023.19,384.88z M-2017.33,431.34
			c13.32-7.33,27.06-13.82,41.14-19.45c1.73,18.47,5.22,36.37,10.32,53.24c-9.99,5.6-19.63,11.85-28.87,18.74
			C-2004.8,467.81-2012.49,450.14-2017.33,431.34z M-1986.41,496.04c8.16-6.12,16.61-11.7,25.31-16.73
			c5.89,15.91,13.29,30.72,22.06,43.99c-4.36,2.59-8.64,5.36-12.83,8.3C-1964.89,521.32-1976.51,509.36-1986.41,496.04z
			 M-1939.16,540.77c2.88-1.9,5.8-3.72,8.76-5.45c6.09,7.77,12.59,14.71,19.43,20.79C-1920.84,551.8-1930.26,546.65-1939.16,540.77z
			 M-1917.15,528.28c6.52-3.14,13.2-5.88,20.01-8.22c0.57,1.59,1.14,3.17,1.73,4.72c5.78,15.21,12.41,27.8,19.69,37.55
			C-1890.74,555.02-1904.8,543.53-1917.15,528.28z M-1843.78,570.35c-13.71-4.8-27.19-22.72-37.85-50.81
			c-0.46-1.22-0.92-2.46-1.37-3.72c12.73-3.26,25.85-5.18,39.23-5.69V570.35z M-1843.78,495.39c-14.95,0.53-29.61,2.68-43.81,6.39
			c-4.35-14.7-7.81-30.87-10.33-48.06c17.53-4.4,35.65-6.89,54.14-7.42V495.39z M-1843.78,431.56c-19,0.52-37.74,3.04-56.02,7.52
			c-1.73-15.5-2.71-31.68-2.9-48.23c19.39-3.47,39.1-5.42,58.92-5.8V431.56z M-1843.78,370.3c-4.9,0.09-9.79,0.28-14.68,0.55V190.68
			l14.68-9.45V370.3z M-1843.78,163.69l-29.42,18.95v92.05l-14.81,9.54V108.28l44.22-28.48V163.69z M-1770.07,268.04l14.74,9.49
			v101.14c-4.89-1.03-9.81-1.97-14.74-2.81V268.04z M-1710.96,406.48c-1.41,17.95-4.56,35.33-9.3,51.69
			c-8.89-4.33-18.02-8.18-27.39-11.5c-3.64-1.29-7.31-2.5-10.99-3.63c1.85-15.84,2.93-32.35,3.22-49.24
			C-1740.34,397.11-1725.49,401.34-1710.96,406.48z M-1740.59,382.08v-38.77l15.01,9.67v33.22c-3.09-0.91-6.19-1.8-9.31-2.64
			C-1736.79,383.05-1738.69,382.56-1740.59,382.08z M-1724.82,472.26c-5.76,16.01-13.13,30.82-21.94,43.95
			c-7.9-3.94-16.03-7.33-24.35-10.18c4.39-14.83,7.91-31.06,10.5-48.26C-1748.33,461.66-1736.38,466.49-1724.82,472.26z
			 M-1773.01,439.08c-18.28-4.48-37.02-7-56.02-7.52v-46.51c19.82,0.39,39.53,2.34,58.92,5.8
			C-1770.3,407.4-1771.29,423.58-1773.01,439.08z M-1774.89,453.72c-2.51,17.19-5.98,33.36-10.33,48.06
			c-14.2-3.71-28.87-5.86-43.81-6.39V446.3C-1810.54,446.83-1792.43,449.32-1774.89,453.72z M-1829.04,79.8l44.22,28.48v132.73
			l-14.74-9.49V116.32l-29.48-18.99V79.8z M-1829.04,114.86l14.74,9.49v97.66l-14.74-9.49V114.86z M-1829.04,230.06l44.22,28.48
			v115.07c-14.63-1.93-29.39-3.04-44.22-3.31V230.06z M-1829.03,570.35v-60.22c13.37,0.51,26.5,2.43,39.23,5.69
			c-0.45,1.25-0.91,2.49-1.37,3.72C-1801.84,547.63-1815.32,565.56-1829.03,570.35z M-1797.09,562.33
			c7.28-9.75,13.92-22.34,19.69-37.55c0.59-1.55,1.16-3.13,1.73-4.72c6.82,2.34,13.5,5.08,20.01,8.22
			C-1768.02,543.52-1782.08,555.02-1797.09,562.33z M-1761.84,556.11c6.84-6.08,13.34-13.01,19.43-20.79
			c2.96,1.73,5.88,3.55,8.76,5.45C-1742.55,546.65-1751.98,551.8-1761.84,556.11z M-1720.95,531.6c-4.19-2.94-8.47-5.71-12.83-8.3
			c8.77-13.27,16.17-28.07,22.06-43.99c8.7,5.02,17.15,10.61,25.31,16.73C-1696.3,509.36-1707.92,521.32-1720.95,531.6z
			 M-1678.08,483.86c-9.24-6.88-18.87-13.14-28.86-18.74c5.11-16.87,8.59-34.76,10.32-53.24c14.08,5.63,27.82,12.12,41.14,19.45
			C-1660.32,450.14-1668.02,467.81-1678.08,483.86z M-1652.28,416.31c-18.8-10.08-38.4-18.6-58.56-25.44v-45.93l-29.75-19.16v-56.28
			l-29.48-18.99v-40.28c72.41,27.43,120.45,96.51,120.45,174.66C-1649.63,395.59-1650.54,406.09-1652.28,416.31z"/>
	</g>
	
		<text id="name_00000173148410804013996950000003699227840527154616_" transform="matrix(1 0 0 1 -1540.7988 421.8891)" class="st2" style="font-family:'Montserrat-ExtraBold'; font-size:294.6212px; letter-spacing:7;">SOLARIA</text>
</g>
<g id="Capa_9">
	<g>
		<g>
			<path class="st0" d="M140.81,368.04c0-61.36,35.86-114.33,87.76-139.12v-28.17c-72.5,27.4-120.45,96.22-120.45,174.67
				c0,10.71,0.91,21.21,2.66,31.43c10.38-5.56,21-10.65,31.82-15.24C141.42,383.93,140.81,376.06,140.81,368.04z"/>
			<path class="st0" d="M361.24,200.76v28.15c51.9,24.79,87.76,77.77,87.76,139.12c0,8.02-0.61,15.89-1.79,23.57
				c10.82,4.59,21.44,9.68,31.82,15.24c1.74-10.22,2.66-20.72,2.66-31.43C481.68,297.27,433.64,228.19,361.24,200.76z"/>
		</g>
		<g>
			<polygon class="st1" points="331.76,89.33 302.28,70.34 302.28,87.87 331.76,106.86 			"/>
			<path class="st1" d="M199.09,372.62v-21.45l-15.01,9.67v15.9c3.09-0.91,6.19-1.8,9.31-2.64
				C195.28,373.59,197.19,373.1,199.09,372.62z"/>
			<path class="st1" d="M228.57,366.4c9.78-1.67,19.64-2.99,29.55-3.91v-62.37l-29.55,19.03V366.4z"/>
			<path class="st1" d="M287.53,228.43L287.53,228.43V189.1l-14.67,9.45v162.85c4.88-0.27,9.78-0.46,14.67-0.55V228.43z"/>
			<path class="st1" d="M405.73,376.74v-16.07L390.72,351v21.62c1.9,0.48,3.8,0.97,5.7,1.48
				C399.53,374.94,402.63,375.82,405.73,376.74z"/>
			<path class="st1" d="M375.98,285.42l-14.74-9.49v90.47c4.93,0.84,9.85,1.78,14.74,2.81V285.42z"/>
			<polygon class="st1" points="317.02,132.44 302.28,122.94 302.28,203.07 317.02,212.56 			"/>
			<path class="st1" d="M331.76,362.5V256.91l-29.48-18.99v122.92C312.14,361.02,321.97,361.58,331.76,362.5z"/>
			<polygon class="st1" points="287.53,154.24 287.53,87.95 243.31,116.43 243.31,274.77 258.12,265.23 258.12,190.79 
				258.12,173.19 			"/>
		</g>
		<path class="st2" d="M457.15,255.87c-12.36-16.75-27.17-31.44-44.02-43.67c-15.94-11.57-33.38-20.68-51.89-27.13V90.79
			L294.9,48.06l-66.33,42.73v94.29c-17.9,6.23-34.8,14.96-50.33,26c-17.14,12.19-32.22,26.91-44.82,43.76
			c-26.19,35.03-40.04,76.72-40.04,120.58c0,27.2,5.33,53.59,15.84,78.44c10.15,24,24.68,45.55,43.18,64.05
			c18.5,18.5,40.06,33.03,64.05,43.18c24.85,10.51,51.24,15.84,78.44,15.84c27.2,0,53.59-5.33,78.44-15.84
			c24-10.15,45.55-24.68,64.05-43.18c18.5-18.51,33.03-40.06,43.18-64.05c10.51-24.85,15.84-51.24,15.84-78.44
			C496.43,332.03,482.85,290.69,457.15,255.87z M258.12,282.77v79.73c-14.91,1.4-29.69,3.64-44.29,6.72v-57.92L258.12,282.77z
			 M213.91,384.33c0.28,16.89,1.37,33.4,3.22,49.24c-3.69,1.13-7.35,2.34-10.99,3.63c-9.36,3.32-18.5,7.17-27.39,11.5
			c-4.74-16.36-7.89-33.74-9.3-51.69C183.99,391.88,198.84,387.65,213.91,384.33z M184.08,376.74v-33.22l15.01-9.67v38.77
			c-1.9,0.48-3.8,0.97-5.7,1.48C190.27,374.94,187.18,375.82,184.08,376.74z M219.1,448.32c2.6,17.2,6.12,33.43,10.5,48.26
			c-8.32,2.85-16.45,6.24-24.35,10.18c-8.81-13.13-16.18-27.94-21.94-43.95C194.88,457.03,206.83,452.2,219.1,448.32z
			 M108.12,375.42c0-78.45,47.95-147.27,120.45-174.67v83.51l-29.48,18.99v13.06l-29.75,19.16v45.93
			c-20.16,6.85-39.76,15.37-58.56,25.44C109.04,396.63,108.12,386.13,108.12,375.42z M113.98,421.88
			c13.32-7.33,27.06-13.82,41.14-19.45c1.73,18.47,5.22,36.37,10.32,53.24c-9.99,5.6-19.63,11.85-28.87,18.74
			C126.52,458.36,118.82,440.69,113.98,421.88z M144.9,486.58c8.16-6.12,16.61-11.7,25.31-16.73c5.89,15.91,13.29,30.72,22.06,43.99
			c-4.36,2.59-8.64,5.36-12.83,8.3C166.42,511.87,154.8,499.9,144.9,486.58z M192.16,531.32c2.88-1.9,5.8-3.72,8.76-5.45
			c6.09,7.77,12.59,14.71,19.43,20.79C210.47,542.34,201.05,537.2,192.16,531.32z M214.16,518.82c6.52-3.14,13.2-5.88,20.01-8.22
			c0.57,1.59,1.14,3.17,1.73,4.72c5.78,15.21,12.41,27.8,19.69,37.55C240.58,545.56,226.52,534.07,214.16,518.82z M287.53,560.9
			c-13.71-4.8-27.19-22.72-37.85-50.81c-0.46-1.22-0.92-2.46-1.37-3.72c12.73-3.26,25.85-5.18,39.23-5.69V560.9z M287.53,485.93
			c-14.95,0.53-29.61,2.68-43.81,6.39c-4.35-14.7-7.81-30.87-10.33-48.06c17.53-4.4,35.65-6.89,54.14-7.42V485.93z M287.53,422.1
			c-19,0.52-37.74,3.04-56.02,7.52c-1.73-15.5-2.71-31.68-2.9-48.23c19.39-3.47,39.1-5.42,58.92-5.8V422.1z M287.53,360.84
			c-4.9,0.09-9.79,0.28-14.67,0.55V181.22l14.67-9.45V360.84z M287.53,154.24l-29.42,18.95v92.05l-14.81,9.54V98.82l44.22-28.48
			V154.24z M361.24,258.58l14.74,9.49v101.14c-4.89-1.03-9.81-1.97-14.74-2.81V258.58z M420.35,397.02
			c-1.41,17.95-4.56,35.33-9.3,51.69c-8.89-4.33-18.02-8.18-27.39-11.5c-3.64-1.29-7.31-2.5-10.99-3.63
			c1.85-15.84,2.93-32.35,3.22-49.24C390.97,387.65,405.82,391.88,420.35,397.02z M390.72,372.62v-38.77l15.01,9.67v33.22
			c-3.09-0.91-6.19-1.8-9.31-2.64C394.52,373.59,392.62,373.1,390.72,372.62z M406.49,462.81c-5.76,16.01-13.13,30.82-21.94,43.95
			c-7.9-3.94-16.03-7.33-24.35-10.18c4.39-14.83,7.91-31.06,10.5-48.26C382.98,452.2,394.93,457.03,406.49,462.81z M358.3,429.62
			c-18.28-4.48-37.02-7-56.02-7.52v-46.51c19.82,0.39,39.53,2.34,58.92,5.8C361.01,397.94,360.02,414.12,358.3,429.62z
			 M356.42,444.27c-2.51,17.19-5.98,33.36-10.33,48.06c-14.2-3.71-28.87-5.86-43.81-6.39v-49.08
			C320.77,437.37,338.88,439.87,356.42,444.27z M302.28,70.34l44.22,28.48v132.73l-14.74-9.49V106.86l-29.48-18.99V70.34z
			 M302.28,105.41l14.74,9.49v97.66l-14.74-9.49V105.41z M302.28,220.6l44.22,28.48v115.07c-14.63-1.93-29.39-3.04-44.22-3.31V220.6
			z M302.28,560.9v-60.22c13.37,0.51,26.5,2.43,39.23,5.69c-0.45,1.25-0.91,2.49-1.37,3.72C329.47,538.18,315.99,556.1,302.28,560.9
			z M334.22,552.87c7.28-9.75,13.92-22.34,19.69-37.55c0.59-1.55,1.16-3.13,1.73-4.72c6.82,2.34,13.5,5.08,20.01,8.22
			C363.29,534.07,349.23,545.56,334.22,552.87z M369.47,546.65c6.84-6.08,13.34-13.01,19.43-20.79c2.96,1.73,5.88,3.55,8.76,5.45
			C388.76,537.2,379.33,542.34,369.47,546.65z M410.36,522.14c-4.19-2.94-8.47-5.71-12.83-8.3c8.77-13.27,16.17-28.07,22.06-43.99
			c8.7,5.02,17.15,10.61,25.31,16.73C435.01,499.9,423.39,511.87,410.36,522.14z M453.23,474.4c-9.24-6.88-18.87-13.14-28.86-18.74
			c5.11-16.87,8.59-34.76,10.32-53.24c14.08,5.63,27.82,12.12,41.14,19.45C470.99,440.69,463.29,458.36,453.23,474.4z
			 M479.03,406.85c-18.8-10.08-38.4-18.6-58.56-25.44v-45.93l-29.75-19.16v-56.28l-29.48-18.99v-40.28
			c72.41,27.43,120.45,96.51,120.45,174.66C481.68,386.13,480.77,396.63,479.03,406.85z"/>
	</g>
</g>
</svg>
